<svg width="13" height="12" viewBox="0 0 13 12" fill="none" xmlns="http://www.w3.org/2000/svg">
<path d="M9.24686 3.5V3.125C9.07943 3.125 8.93228 3.23599 8.88629 3.39698L9.24686 3.5ZM11.9969 3.5H12.3719C12.3719 3.44178 12.3583 3.38437 12.3323 3.33229L11.9969 3.5ZM0.996857 3.5L0.661446 3.33229C0.635411 3.38437 0.621857 3.44178 0.621857 3.5H0.996857ZM3.74686 3.5L4.10743 3.39698C4.06143 3.23599 3.91429 3.125 3.74686 3.125V3.5ZM0.996857 7.5H0.621857C0.621857 7.70711 0.78975 7.875 0.996857 7.875L0.996857 7.5ZM11.9969 7.5V7.875C12.204 7.875 12.3719 7.70711 12.3719 7.5H11.9969ZM2.49686 0.5V0.125C2.35482 0.125 2.22497 0.205251 2.16145 0.332295L2.49686 0.5ZM10.4969 0.5L10.8323 0.332295C10.7687 0.205251 10.6389 0.125 10.4969 0.125V0.5ZM11.6219 5.25C11.6219 5.45711 11.7897 5.625 11.9969 5.625C12.204 5.625 12.3719 5.45711 12.3719 5.25H11.6219ZM0.621857 5C0.621857 5.20711 0.78975 5.375 0.996857 5.375C1.20396 5.375 1.37186 5.20711 1.37186 5L0.621857 5ZM0.621857 4.5V10H1.37186V4.5H0.621857ZM0.621857 10C0.621857 10.497 0.866562 10.9625 1.20044 11.2964C1.53432 11.6303 1.99989 11.875 2.49686 11.875V11.125C2.24382 11.125 1.95939 10.9947 1.73077 10.7661C1.50215 10.5375 1.37186 10.253 1.37186 10H0.621857ZM2.49686 11.875H10.4969V11.125H2.49686V11.875ZM10.4969 11.875C10.9938 11.875 11.4594 11.6303 11.7933 11.2964C12.1272 10.9625 12.3719 10.497 12.3719 10H11.6219C11.6219 10.253 11.4916 10.5375 11.2629 10.7661C11.0343 10.9947 10.7499 11.125 10.4969 11.125V11.875ZM12.3719 10V4.5H11.6219V10H12.3719ZM6.49686 5.625C7.73311 5.625 8.51809 5.13881 8.9904 4.63017C9.22259 4.38013 9.37451 4.1301 9.46899 3.94114C9.51635 3.84641 9.54972 3.76616 9.57181 3.70765C9.58286 3.67836 9.59114 3.65442 9.59695 3.63671C9.59986 3.62785 9.60216 3.62054 9.6039 3.6149C9.60476 3.61207 9.60549 3.60966 9.60607 3.60768C9.60637 3.60668 9.60662 3.6058 9.60685 3.60502C9.60696 3.60463 9.60707 3.60427 9.60716 3.60394C9.60721 3.60377 9.60728 3.60354 9.6073 3.60346C9.60737 3.60324 9.60743 3.60302 9.24686 3.5C8.88629 3.39698 8.88634 3.39678 8.8864 3.39658C8.88642 3.39652 8.88647 3.39633 8.8865 3.39622C8.88657 3.39599 8.88663 3.39579 8.88668 3.39561C8.88678 3.39526 8.88685 3.39501 8.8869 3.39486C8.88699 3.39456 8.88696 3.39466 8.88681 3.39514C8.88651 3.39612 8.88573 3.39864 8.88443 3.4026C8.88183 3.41052 8.87716 3.42418 8.87015 3.44274C8.85611 3.47993 8.83283 3.5364 8.79817 3.60573C8.72858 3.7449 8.61488 3.93237 8.44081 4.11983C8.10062 4.48619 7.5106 4.875 6.49686 4.875V5.625ZM9.24686 3.875H11.9969V3.125H9.24686V3.875ZM0.996857 3.875H3.74686V3.125H0.996857V3.875ZM3.74686 3.5C3.38629 3.60302 3.38635 3.60324 3.38641 3.60346C3.38643 3.60354 3.3865 3.60377 3.38655 3.60394C3.38665 3.60427 3.38675 3.60463 3.38686 3.60502C3.38709 3.6058 3.38735 3.60668 3.38764 3.60768C3.38823 3.60966 3.38895 3.61207 3.38982 3.6149C3.39155 3.62054 3.39385 3.62785 3.39676 3.63671C3.40258 3.65442 3.41085 3.67836 3.42191 3.70765C3.444 3.76616 3.47736 3.84641 3.52473 3.94114C3.61921 4.1301 3.77113 4.38013 4.00331 4.63017C4.47562 5.13881 5.2606 5.625 6.49686 5.625V4.875C5.48311 4.875 4.89309 4.48619 4.5529 4.11983C4.37884 3.93237 4.26513 3.7449 4.19555 3.60573C4.16088 3.5364 4.13761 3.47993 4.12356 3.44274C4.11656 3.42418 4.11189 3.41052 4.10928 3.4026C4.10798 3.39864 4.1072 3.39612 4.1069 3.39514C4.10675 3.39466 4.10672 3.39456 4.10681 3.39486C4.10686 3.39501 4.10693 3.39526 4.10703 3.39561C4.10709 3.39579 4.10714 3.39599 4.10721 3.39622C4.10724 3.39633 4.1073 3.39652 4.10731 3.39658C4.10737 3.39678 4.10743 3.39698 3.74686 3.5ZM6.49686 8.875C5.34584 8.875 4.76628 8.47769 4.46908 8.13095C4.31507 7.95128 4.22579 7.77218 4.17541 7.63994C4.1503 7.574 4.13519 7.5206 4.12672 7.48599C4.12249 7.46874 4.11995 7.4563 4.11865 7.44949C4.118 7.44609 4.11767 7.44411 4.11759 7.44365C4.11756 7.44342 4.11758 7.44357 4.11767 7.44412C4.11771 7.44439 4.11777 7.44477 4.11784 7.44524C4.11787 7.44548 4.11791 7.44574 4.11795 7.44603C4.11797 7.44617 4.11801 7.44641 4.11802 7.44648C4.11805 7.44672 4.11809 7.44697 3.74686 7.5C3.37563 7.55303 3.37566 7.55329 3.3757 7.55356C3.37572 7.55366 3.37576 7.55393 3.37578 7.55413C3.37584 7.55453 3.3759 7.55495 3.37597 7.5554C3.3761 7.55629 3.37626 7.5573 3.37643 7.55842C3.37677 7.56065 3.3772 7.56331 3.37771 7.56639C3.37873 7.57256 3.3801 7.5804 3.3819 7.58982C3.38548 7.60864 3.39075 7.6338 3.39825 7.6644C3.41321 7.72549 3.43717 7.80881 3.47455 7.90694C3.54917 8.10282 3.67864 8.36122 3.89964 8.61905C4.35243 9.14731 5.14787 9.625 6.49686 9.625V8.875ZM3.74686 7.125H0.996857V7.875H3.74686V7.125ZM11.9969 7.125H9.24686V7.875H11.9969V7.125ZM9.24686 7.5C8.87563 7.44697 8.87566 7.44672 8.8757 7.44648C8.87571 7.44641 8.87574 7.44617 8.87576 7.44603C8.8758 7.44574 8.87584 7.44548 8.87588 7.44524C8.87595 7.44477 8.876 7.44439 8.87605 7.44412C8.87613 7.44357 8.87616 7.44342 8.87612 7.44365C8.87604 7.44411 8.87571 7.44609 8.87506 7.44949C8.87376 7.4563 8.87122 7.46874 8.867 7.48599C8.85852 7.5206 8.84342 7.574 8.8183 7.63994C8.76792 7.77218 8.67864 7.95128 8.52464 8.13095C8.22743 8.47769 7.64787 8.875 6.49686 8.875V9.625C7.84584 9.625 8.64128 9.14731 9.09408 8.61905C9.31507 8.36122 9.44454 8.10282 9.51916 7.90694C9.55655 7.80881 9.58051 7.72549 9.59547 7.6644C9.60296 7.6338 9.60823 7.60864 9.61182 7.58982C9.61361 7.5804 9.61498 7.57256 9.61601 7.56639C9.61652 7.56331 9.61694 7.56065 9.61729 7.55842C9.61746 7.5573 9.61761 7.55629 9.61774 7.5554C9.61781 7.55495 9.61787 7.55453 9.61793 7.55413C9.61796 7.55393 9.618 7.55366 9.61801 7.55356C9.61805 7.55329 9.61809 7.55303 9.24686 7.5ZM11.6219 3.5V7.5H12.3719V3.5H11.6219ZM1.37186 7.5V3.5H0.621857V7.5H1.37186ZM2.49686 0.875H10.4969V0.125H2.49686V0.875ZM10.1614 0.667705L11.6614 3.66771L12.3323 3.33229L10.8323 0.332295L10.1614 0.667705ZM11.6219 3.5V5.25H12.3719V3.5H11.6219ZM2.16145 0.332295L0.661446 3.33229L1.33227 3.66771L2.83227 0.667705L2.16145 0.332295ZM0.621857 3.5L0.621857 5L1.37186 5L1.37186 3.5L0.621857 3.5ZM3.74686 7.875H9.24686V7.125H3.74686V7.875Z" fill="#191B1D"/>
</svg>
