<svg xmlns="http://www.w3.org/2000/svg" width="32" height="32" fill="none" viewBox="0 0 32 32"><path stroke="#191B1D" stroke-linecap="round" stroke-linejoin="round" stroke-width="2" d="M25 5H7C4.79086 5 3 6.79086 3 9V19C3 21.2091 4.79086 23 7 23H18L24 27V23H25C27.2091 23 29 21.2091 29 19V9C29 6.79086 27.2091 5 25 5Z"/><path stroke="#191B1D" stroke-linecap="round" stroke-linejoin="round" stroke-width="2" d="M10 15C10 15.5523 9.55228 16 9 16C8.44772 16 8 15.5523 8 15C8 14.4477 8.44772 14 9 14C9.55228 14 10 14.4477 10 15Z"/><path stroke="#191B1D" stroke-linecap="round" stroke-linejoin="round" stroke-width="2" d="M16 15C16 15.5523 15.5523 16 15 16C14.4477 16 14 15.5523 14 15C14 14.4477 14.4477 14 15 14C15.5523 14 16 14.4477 16 15Z"/><path stroke="#191B1D" stroke-linecap="round" stroke-linejoin="round" stroke-width="2" d="M22 15C22 15.5523 21.5523 16 21 16C20.4477 16 20 15.5523 20 15C20 14.4477 20.4477 14 21 14C21.5523 14 22 14.4477 22 15Z"/></svg>