<svg xmlns="http://www.w3.org/2000/svg" width="13" height="13" fill="none" viewBox="0 0 13 13"><path fill="#CB3A31" d="M2.63522 11L2.26533 11.0616C2.27147 11.0985 2.2831 11.1343 2.29981 11.1677L2.63522 11ZM10.6352 11L10.9706 11.1677C10.9874 11.1343 10.999 11.0985 11.0051 11.0616L10.6352 11ZM8.15039 6.51517C8.29684 6.36872 8.29684 6.13128 8.15039 5.98483C8.00394 5.83839 7.7665 5.83839 7.62006 5.98483L8.15039 6.51517ZM5.12006 8.48483C4.97361 8.63128 4.97361 8.86872 5.12006 9.01517C5.2665 9.16161 5.50394 9.16161 5.65039 9.01517L5.12006 8.48483ZM5.65039 5.98483C5.50394 5.83839 5.2665 5.83839 5.12006 5.98483C4.97361 6.13128 4.97361 6.36872 5.12006 6.51517L5.65039 5.98483ZM7.62006 9.01517C7.7665 9.16161 8.00394 9.16161 8.15039 9.01517C8.29684 8.86872 8.29684 8.63128 8.15039 8.48483L7.62006 9.01517ZM11.7602 2C11.7602 2.00852 11.7492 2.1079 11.4998 2.2687C11.2672 2.41869 10.9058 2.56793 10.4256 2.69887C9.47078 2.95929 8.13053 3.125 6.63522 3.125V3.875C8.17749 3.875 9.58723 3.70492 10.623 3.42245C11.1382 3.28194 11.5822 3.10796 11.9062 2.89903C12.2135 2.70092 12.5102 2.4057 12.5102 2H11.7602ZM6.63522 3.125C5.13992 3.125 3.79966 2.95929 2.84481 2.69887C2.36469 2.56793 2.00326 2.41869 1.77066 2.2687C1.52127 2.1079 1.51022 2.00852 1.51022 2H0.760223C0.760223 2.4057 1.05698 2.70092 1.36422 2.89903C1.68825 3.10796 2.13228 3.28194 2.64747 3.42245C3.68322 3.70492 5.09296 3.875 6.63522 3.875V3.125ZM1.51022 2C1.51022 1.99148 1.52127 1.8921 1.77066 1.7313C2.00326 1.58131 2.36469 1.43207 2.84481 1.30113C3.79966 1.04071 5.13992 0.875 6.63522 0.875V0.125C5.09296 0.125 3.68322 0.295076 2.64747 0.577553C2.13228 0.718059 1.68825 0.892036 1.36422 1.10097C1.05698 1.29908 0.760223 1.5943 0.760223 2H1.51022ZM6.63522 0.875C8.13053 0.875 9.47078 1.04071 10.4256 1.30113C10.9058 1.43207 11.2672 1.58131 11.4998 1.7313C11.7492 1.8921 11.7602 1.99148 11.7602 2H12.5102C12.5102 1.5943 12.2135 1.29908 11.9062 1.10097C11.5822 0.892036 11.1382 0.718059 10.623 0.577553C9.58723 0.295076 8.17749 0.125 6.63522 0.125V0.875ZM0.765326 2.06165L2.26533 11.0616L3.00512 10.9384L1.50512 1.93835L0.765326 2.06165ZM11.0051 11.0616L12.5051 2.06165L11.7653 1.93835L10.2653 10.9384L11.0051 11.0616ZM2.63522 11C2.29981 11.1677 2.30004 11.1682 2.30028 11.1686C2.30036 11.1688 2.3006 11.1693 2.30076 11.1696C2.30108 11.1702 2.30142 11.1709 2.30176 11.1716C2.30245 11.1729 2.30318 11.1743 2.30395 11.1758C2.3055 11.1787 2.3072 11.1818 2.30908 11.1852C2.31284 11.192 2.31729 11.1996 2.3225 11.2081C2.33294 11.225 2.34642 11.2451 2.36354 11.268C2.39785 11.3137 2.44637 11.3697 2.51368 11.4318C2.64857 11.5563 2.85592 11.7029 3.17042 11.8427C3.79661 12.121 4.85326 12.375 6.63522 12.375V11.625C4.91718 11.625 3.97384 11.379 3.47503 11.1573C3.22702 11.0471 3.09062 10.9437 3.02239 10.8807C2.98814 10.8491 2.97025 10.8269 2.96354 10.818C2.96016 10.8135 2.95947 10.8121 2.96088 10.8144C2.96158 10.8155 2.9628 10.8176 2.96445 10.8205C2.96527 10.822 2.96621 10.8237 2.96724 10.8257C2.96776 10.8267 2.9683 10.8277 2.96887 10.8288C2.96915 10.8294 2.96944 10.8299 2.96973 10.8305C2.96988 10.8308 2.97011 10.8312 2.97018 10.8314C2.97041 10.8318 2.97063 10.8323 2.63522 11ZM6.63522 12.375C8.41718 12.375 9.47384 12.121 10.1 11.8427C10.4145 11.7029 10.6219 11.5563 10.7568 11.4318C10.8241 11.3697 10.8726 11.3137 10.9069 11.268C10.924 11.2451 10.9375 11.225 10.9479 11.2081C10.9532 11.1996 10.9576 11.192 10.9614 11.1852C10.9632 11.1818 10.965 11.1787 10.9665 11.1758C10.9673 11.1743 10.968 11.1729 10.9687 11.1716C10.969 11.1709 10.9694 11.1702 10.9697 11.1696C10.9698 11.1693 10.9701 11.1688 10.9702 11.1686C10.9704 11.1682 10.9706 11.1677 10.6352 11C10.2998 10.8323 10.3 10.8318 10.3003 10.8314C10.3003 10.8312 10.3006 10.8308 10.3007 10.8305C10.301 10.8299 10.3013 10.8294 10.3016 10.8288C10.3021 10.8277 10.3027 10.8267 10.3032 10.8257C10.3042 10.8237 10.3052 10.822 10.306 10.8205C10.3077 10.8176 10.3089 10.8155 10.3096 10.8144C10.311 10.8121 10.3103 10.8135 10.3069 10.818C10.3002 10.8269 10.2823 10.8491 10.2481 10.8807C10.1798 10.9437 10.0434 11.0471 9.79542 11.1573C9.29661 11.379 8.35326 11.625 6.63522 11.625V12.375ZM7.62006 5.98483L5.12006 8.48483L5.65039 9.01517L8.15039 6.51517L7.62006 5.98483ZM5.12006 6.51517L7.62006 9.01517L8.15039 8.48483L5.65039 5.98483L5.12006 6.51517Z"/></svg>